<svg width="116" height="140" viewBox="0 0 116 140" fill="none" xmlns="http://www.w3.org/2000/svg">
<path d="M4.5 27.1744V59.5309L20.0773 52.8617V35.4698L37.8699 44.967L54.2484 37.2844L19.064 19.3033L4.5 27.1744Z" fill="black"/>
<path d="M29.7856 14.048L47.154 22.9325L55.4493 18.9027L63.344 22.9325L81.7257 15.462L55.4493 0.0968018L29.7856 14.048Z" fill="black"/>
<path d="M106 27.1744L92.4494 20.3167L74.4683 28.5884L86.5814 35.6819L4.5 72.4688V92.6887L17.65 99.1459L35.2304 90.662L23.7065 84.1813L106 46.5931V27.1744Z" fill="black"/>
<path d="M105.999 91.6754V59.1304L90.8225 65.5875V83.7807L72.6294 74.0714L56.4629 81.9661L90.8225 100.371L105.999 91.6754Z" fill="black"/>
<path d="M55.1214 101.125L46.2134 97.1428L29.9526 104.873L55.1214 118.352L81.8692 104.873L65.8205 97.1428L55.1214 101.125Z" fill="black"/>
<path d="M4 129.603C15.1021 129.088 18.7474 128.427 29.7307 130.123C35.7685 131.055 41.4075 129.769 47.4454 130.191C53.4488 130.609 59.4463 131.545 65.431 132.206C85.383 134.41 93.5373 131.101 112 123" stroke="black" stroke-width="7" stroke-linecap="round"/>
</svg>
