<svg width="108" height="112" viewBox="0 0 108 112" fill="none" xmlns="http://www.w3.org/2000/svg">
<path d="M74.129 80.2671L51.8085 47.8373L48.6301 43.2212L22.7297 5.58932H33.8709L54.8172 36.0226L57.9952 40.6391L85.2708 80.2671H74.129ZM89.8765 77.0993L61.7634 36.2562L58.5847 31.6375L38.4747 2.42145L36.808 -1.33891e-05H12.0967L18.1234 8.75792L44.8622 47.6085L48.0407 52.2227L69.5247 83.4384L71.1918 85.8568H95.9034L89.8765 77.0993Z" fill="black"/>
<path d="M48.6299 43.2211L51.8085 47.8374L48.0404 52.2229L19.1293 85.8569H12L44.8619 47.6086L48.6299 43.2211Z" fill="black"/>
<path d="M92.928 3.84309e-06L61.7636 36.2562L57.9954 40.6392L54.8174 36.0226L58.5848 31.6375L79.696 7.06552L85.7989 3.84309e-06H92.928Z" fill="black"/>
<path d="M4 99C7.87937 102.436 14.5916 102.83 19.2107 103.117C26.3466 103.561 33.4187 105.434 40.5517 106.149C48.9576 106.992 58.3475 108.853 66.7203 107.552C70.2097 107.009 74.2123 107.427 77.5249 105.923C79.9551 104.819 83.4552 103.887 86.069 103.887C88.4375 103.887 91.8594 104.649 94.0383 103.479C96.8065 101.993 101.923 104.71 104 102.258" stroke="black" stroke-width="7" stroke-linecap="round"/>
</svg>
