<svg width="104" height="108" viewBox="0 0 104 108" fill="none" xmlns="http://www.w3.org/2000/svg">
<path d="M100.811 2.44668C100.467 1.43335 100.056 1.16668 99.415 0.913351C98.0124 0.393351 95.6364 1.18002 95.6364 1.18002C95.6364 1.18002 11.523 31.42 6.71769 34.7667C5.68302 35.4867 5.33637 35.9133 5.16437 36.4067C4.3337 38.78 6.92169 39.8334 6.92169 39.8334L28.6017 46.9C28.6017 46.9 29.4097 47.02 29.6977 46.8334C34.6297 43.7134 79.319 15.5 81.8964 14.5533C82.303 14.4333 82.6044 14.5667 82.5244 14.8467C81.4924 18.4734 42.6777 52.9667 42.6777 52.9667C42.6777 52.9667 42.5297 53.1534 42.4364 53.3667L42.3857 53.34L40.363 74.8467C40.363 74.8467 39.515 81.4333 46.103 74.8467C50.751 70.1933 55.2484 66.3 57.499 64.42C64.9537 69.5667 72.9764 75.26 76.439 78.2334C78.1777 79.7267 79.6324 79.9667 80.8297 79.9267C84.1164 79.8067 85.0337 76.1933 85.0337 76.1933C85.0337 76.1933 100.362 14.5 100.874 6.23335C100.924 5.42002 100.994 4.91334 100.999 4.35334C101.008 3.58001 100.936 2.80668 100.811 2.44668Z" fill="black"/>
<path d="M4 88C7.86561 88.3514 11.6198 90.7027 15.3296 91.7461C19.7949 93.0019 24.2438 93.8993 28.6693 95.4008C41.1571 99.6377 52.1048 104.992 65.6275 103.213C73.4334 102.186 81.049 101.742 88.7892 100.335C89.8243 100.146 100.21 97.4146 100.21 96.2231" stroke="black" stroke-width="7" stroke-linecap="round"/>
</svg>
